<?xml version="1.0" encoding="UTF-8"?>
<svg xmlns="http://www.w3.org/2000/svg" xmlns:xlink="http://www.w3.org/1999/xlink" width="112.5pt" height="112.499997pt" viewBox="0 0 112.5 112.499997" version="1.2">
<defs>
<clipPath id="clip1">
  <path d="M 45 103 L 68 103 L 68 107.300781 L 45 107.300781 Z M 45 103 "/>
</clipPath>
<clipPath id="clip2">
  <path d="M 79 16 L 92.636719 16 L 92.636719 30 L 79 30 Z M 79 16 "/>
</clipPath>
</defs>
<g id="surface1">
<path style=" stroke:none;fill-rule:nonzero;fill:rgb(0%,0%,0%);fill-opacity:1;" d="M 56.441406 68.5 C 54.664062 68.507812 52.933594 68.226562 51.25 67.660156 C 49.5625 67.089844 48.015625 66.265625 46.605469 65.183594 L 72.902344 38.910156 L 72.902344 52.128906 C 72.898438 52.667969 72.871094 53.203125 72.816406 53.738281 C 72.761719 54.273438 72.679688 54.804688 72.574219 55.332031 C 72.464844 55.859375 72.335938 56.378906 72.175781 56.894531 C 72.019531 57.40625 71.835938 57.914062 71.628906 58.410156 C 71.421875 58.90625 71.191406 59.390625 70.933594 59.863281 C 70.679688 60.335938 70.402344 60.796875 70.101562 61.242188 C 69.800781 61.691406 69.480469 62.121094 69.140625 62.535156 C 68.796875 62.949219 68.433594 63.347656 68.054688 63.726562 C 67.671875 64.105469 67.273438 64.464844 66.859375 64.804688 C 66.441406 65.144531 66.007812 65.460938 65.5625 65.757812 C 65.113281 66.058594 64.652344 66.332031 64.179688 66.582031 C 63.703125 66.835938 63.21875 67.0625 62.722656 67.269531 C 62.226562 67.472656 61.71875 67.652344 61.203125 67.808594 C 60.691406 67.960938 60.167969 68.089844 59.644531 68.195312 C 59.117188 68.296875 58.585938 68.375 58.050781 68.425781 C 57.515625 68.476562 56.980469 68.503906 56.441406 68.5 Z M 40.09375 22.820312 C 40.085938 22.273438 40.101562 21.730469 40.148438 21.1875 C 40.191406 20.648438 40.261719 20.109375 40.359375 19.574219 C 40.457031 19.039062 40.582031 18.507812 40.734375 17.988281 C 40.882812 17.464844 41.058594 16.949219 41.261719 16.445312 C 41.460938 15.9375 41.6875 15.445312 41.9375 14.960938 C 42.1875 14.480469 42.460938 14.011719 42.761719 13.554688 C 43.058594 13.097656 43.375 12.660156 43.714844 12.234375 C 44.054688 11.8125 44.417969 11.40625 44.796875 11.019531 C 45.179688 10.628906 45.578125 10.261719 45.996094 9.914062 C 46.414062 9.566406 46.847656 9.238281 47.296875 8.933594 C 47.746094 8.628906 48.207031 8.347656 48.6875 8.085938 C 49.164062 7.828125 49.652344 7.59375 50.15625 7.382812 C 50.65625 7.171875 51.164062 6.988281 51.683594 6.828125 C 52.203125 6.667969 52.730469 6.535156 53.261719 6.425781 C 53.796875 6.320312 54.332031 6.238281 54.871094 6.1875 C 55.414062 6.132812 55.953125 6.105469 56.5 6.105469 C 57.042969 6.105469 57.582031 6.132812 58.125 6.1875 C 58.664062 6.238281 59.199219 6.320312 59.734375 6.425781 C 60.265625 6.535156 60.792969 6.667969 61.3125 6.828125 C 61.832031 6.988281 62.339844 7.171875 62.839844 7.382812 C 63.34375 7.59375 63.832031 7.828125 64.308594 8.085938 C 64.789062 8.347656 65.25 8.628906 65.699219 8.933594 C 66.148438 9.238281 66.582031 9.566406 67 9.914062 C 67.417969 10.261719 67.816406 10.628906 68.199219 11.019531 C 68.578125 11.40625 68.941406 11.8125 69.28125 12.234375 C 69.621094 12.660156 69.941406 13.097656 70.238281 13.554688 C 70.535156 14.011719 70.808594 14.480469 71.058594 14.960938 C 71.308594 15.445312 71.535156 15.9375 71.734375 16.445312 C 71.9375 16.949219 72.113281 17.464844 72.261719 17.988281 C 72.414062 18.507812 72.539062 19.039062 72.636719 19.574219 C 72.734375 20.109375 72.804688 20.648438 72.847656 21.1875 C 72.894531 21.730469 72.910156 22.273438 72.902344 22.820312 L 72.902344 32.796875 C 72.855469 32.824219 72.8125 32.851562 72.769531 32.886719 L 43.484375 62.191406 C 42.386719 60.742188 41.542969 59.15625 40.960938 57.429688 C 40.378906 55.707031 40.085938 53.933594 40.085938 52.113281 Z M 40.09375 22.820312 "/>
<path style=" stroke:none;fill-rule:nonzero;fill:rgb(0%,0%,0%);fill-opacity:1;" d="M 85.023438 50.910156 C 85.035156 51.855469 85 52.800781 84.917969 53.742188 C 84.839844 54.683594 84.710938 55.621094 84.539062 56.550781 C 84.363281 57.476562 84.144531 58.394531 83.882812 59.304688 C 83.617188 60.210938 83.308594 61.101562 82.957031 61.980469 C 82.601562 62.855469 82.207031 63.714844 81.769531 64.550781 C 81.332031 65.390625 80.855469 66.203125 80.335938 66.992188 C 79.820312 67.785156 79.261719 68.546875 78.671875 69.28125 C 78.078125 70.015625 77.449219 70.71875 76.785156 71.394531 C 76.121094 72.066406 75.429688 72.703125 74.703125 73.308594 C 73.976562 73.910156 73.222656 74.476562 72.4375 75.007812 C 71.65625 75.535156 70.851562 76.023438 70.019531 76.472656 C 69.1875 76.921875 68.339844 77.328125 67.46875 77.695312 C 66.597656 78.058594 65.710938 78.378906 64.808594 78.65625 C 63.90625 78.933594 62.992188 79.164062 62.066406 79.351562 C 61.140625 79.535156 60.207031 79.675781 59.269531 79.769531 C 58.328125 79.863281 57.386719 79.910156 56.445312 79.910156 C 55.5 79.910156 54.558594 79.863281 53.621094 79.769531 C 52.679688 79.675781 51.75 79.535156 50.824219 79.351562 C 49.898438 79.164062 48.984375 78.933594 48.082031 78.65625 C 47.179688 78.378906 46.292969 78.058594 45.421875 77.695312 C 44.550781 77.328125 43.699219 76.921875 42.871094 76.472656 C 42.039062 76.023438 41.230469 75.535156 40.449219 75.007812 C 39.667969 74.476562 38.914062 73.910156 38.1875 73.308594 C 37.460938 72.703125 36.765625 72.066406 36.105469 71.394531 C 35.441406 70.71875 34.8125 70.015625 34.21875 69.28125 C 33.625 68.546875 33.070312 67.785156 32.550781 66.992188 C 32.035156 66.203125 31.554688 65.390625 31.121094 64.550781 C 30.683594 63.714844 30.285156 62.855469 29.933594 61.980469 C 29.582031 61.101562 29.273438 60.210938 29.007812 59.304688 C 28.742188 58.394531 28.523438 57.476562 28.351562 56.550781 C 28.179688 55.621094 28.050781 54.683594 27.96875 53.742188 C 27.886719 52.800781 27.855469 51.855469 27.867188 50.910156 L 27.867188 48.808594 L 23.445312 48.808594 L 23.445312 50.910156 C 23.433594 52.003906 23.472656 53.089844 23.566406 54.179688 C 23.660156 55.265625 23.808594 56.34375 24.011719 57.417969 C 24.210938 58.488281 24.464844 59.546875 24.769531 60.59375 C 25.078125 61.640625 25.433594 62.671875 25.839844 63.683594 C 26.25 64.695312 26.707031 65.683594 27.210938 66.648438 C 27.714844 67.617188 28.269531 68.554688 28.867188 69.464844 C 29.464844 70.378906 30.105469 71.257812 30.792969 72.105469 C 31.476562 72.953125 32.203125 73.765625 32.96875 74.542969 C 33.734375 75.316406 34.535156 76.054688 35.375 76.75 C 36.210938 77.445312 37.082031 78.101562 37.984375 78.710938 C 38.886719 79.320312 39.820312 79.886719 40.777344 80.402344 C 41.734375 80.921875 42.71875 81.390625 43.722656 81.808594 C 44.726562 82.230469 45.75 82.601562 46.792969 82.917969 C 47.835938 83.238281 48.890625 83.503906 49.957031 83.71875 C 51.023438 83.933594 52.101562 84.09375 53.183594 84.203125 C 54.269531 84.3125 55.355469 84.363281 56.445312 84.363281 C 57.535156 84.363281 58.621094 84.3125 59.703125 84.203125 C 60.789062 84.09375 61.863281 83.933594 62.933594 83.71875 C 64 83.503906 65.054688 83.238281 66.097656 82.917969 C 67.136719 82.601562 68.160156 82.230469 69.167969 81.808594 C 70.171875 81.390625 71.152344 80.921875 72.113281 80.402344 C 73.070312 79.886719 74 79.320312 74.902344 78.710938 C 75.808594 78.101562 76.675781 77.445312 77.515625 76.75 C 78.355469 76.054688 79.15625 75.316406 79.921875 74.542969 C 80.6875 73.765625 81.414062 72.953125 82.097656 72.105469 C 82.78125 71.257812 83.425781 70.378906 84.023438 69.464844 C 84.621094 68.554688 85.171875 67.617188 85.679688 66.648438 C 86.183594 65.683594 86.640625 64.695312 87.046875 63.683594 C 87.457031 62.671875 87.8125 61.640625 88.117188 60.59375 C 88.425781 59.546875 88.675781 58.488281 88.878906 57.417969 C 89.078125 56.34375 89.226562 55.265625 89.320312 54.179688 C 89.417969 53.089844 89.457031 52.003906 89.445312 50.910156 L 89.445312 48.808594 L 85.023438 48.808594 Z M 85.023438 50.910156 "/>
<path style=" stroke:none;fill-rule:nonzero;fill:rgb(0%,0%,0%);fill-opacity:1;" d="M 54.230469 86.035156 L 58.652344 86.035156 L 58.652344 100.390625 L 54.230469 100.390625 Z M 54.230469 86.035156 "/>
<g clip-path="url(#clip1)" clip-rule="nonzero">
<path style=" stroke:none;fill-rule:nonzero;fill:rgb(0%,0%,0%);fill-opacity:1;" d="M 65.285156 103.101562 L 47.609375 103.101562 C 47.3125 103.089844 47.027344 103.136719 46.75 103.246094 C 46.472656 103.351562 46.230469 103.511719 46.019531 103.722656 C 45.808594 103.933594 45.648438 104.175781 45.542969 104.453125 C 45.433594 104.730469 45.382812 105.015625 45.394531 105.3125 C 45.402344 105.605469 45.464844 105.882812 45.578125 106.152344 C 45.695312 106.421875 45.855469 106.65625 46.0625 106.863281 C 46.269531 107.070312 46.503906 107.230469 46.773438 107.34375 C 47.039062 107.457031 47.320312 107.519531 47.609375 107.527344 L 65.285156 107.527344 C 65.574219 107.519531 65.855469 107.457031 66.121094 107.34375 C 66.386719 107.230469 66.625 107.070312 66.832031 106.863281 C 67.035156 106.65625 67.195312 106.417969 67.3125 106.152344 C 67.425781 105.882812 67.488281 105.605469 67.496094 105.3125 C 67.507812 105.015625 67.457031 104.730469 67.351562 104.453125 C 67.242188 104.175781 67.082031 103.933594 66.871094 103.722656 C 66.664062 103.511719 66.421875 103.351562 66.144531 103.246094 C 65.867188 103.136719 65.582031 103.089844 65.285156 103.101562 Z M 65.285156 103.101562 "/>
</g>
<g clip-path="url(#clip2)" clip-rule="nonzero">
<path style=" stroke:none;fill-rule:nonzero;fill:rgb(0%,0%,0%);fill-opacity:1;" d="M 91.625 17.054688 C 91.425781 16.835938 91.1875 16.667969 90.917969 16.550781 C 90.648438 16.433594 90.367188 16.375 90.070312 16.375 C 89.777344 16.375 89.492188 16.433594 89.222656 16.550781 C 88.953125 16.667969 88.714844 16.835938 88.515625 17.054688 L 80.097656 25.425781 C 79.773438 25.738281 79.570312 26.117188 79.480469 26.558594 C 79.394531 27 79.4375 27.429688 79.617188 27.839844 C 79.796875 28.253906 80.078125 28.582031 80.457031 28.820312 C 80.839844 29.058594 81.253906 29.164062 81.703125 29.144531 C 82.292969 29.160156 82.789062 28.960938 83.199219 28.539062 L 91.625 20.097656 C 91.828125 19.898438 91.984375 19.664062 92.09375 19.398438 C 92.203125 19.136719 92.257812 18.863281 92.257812 18.574219 C 92.257812 18.289062 92.203125 18.015625 92.09375 17.75 C 91.984375 17.488281 91.828125 17.253906 91.625 17.054688 Z M 91.625 17.054688 "/>
</g>
<path style=" stroke:none;fill-rule:nonzero;fill:rgb(0%,0%,0%);fill-opacity:1;" d="M 28.441406 77.160156 L 21.371094 84.230469 C 21.144531 84.4375 20.96875 84.679688 20.847656 84.960938 C 20.722656 85.242188 20.660156 85.535156 20.660156 85.839844 C 20.660156 86.148438 20.722656 86.441406 20.847656 86.722656 C 20.96875 87.003906 21.144531 87.246094 21.371094 87.453125 C 21.773438 87.898438 22.273438 88.097656 22.871094 88.054688 C 23.46875 88.097656 23.96875 87.894531 24.375 87.453125 L 31.542969 80.152344 C 31.746094 79.957031 31.902344 79.726562 32.011719 79.46875 C 32.121094 79.207031 32.175781 78.933594 32.175781 78.652344 C 32.175781 78.371094 32.121094 78.097656 32.011719 77.839844 C 31.902344 77.578125 31.746094 77.347656 31.542969 77.152344 C 31.347656 76.925781 31.117188 76.753906 30.84375 76.628906 C 30.574219 76.503906 30.289062 76.445312 29.988281 76.445312 C 29.691406 76.445312 29.40625 76.507812 29.136719 76.632812 C 28.867188 76.757812 28.632812 76.933594 28.441406 77.160156 Z M 28.441406 77.160156 "/>
<path style=" stroke:none;fill-rule:nonzero;fill:rgb(0%,0%,0%);fill-opacity:1;" d="M 37.863281 67.796875 C 37.429688 68.183594 37.222656 68.671875 37.253906 69.253906 C 37.261719 69.539062 37.320312 69.816406 37.429688 70.078125 C 37.539062 70.339844 37.695312 70.574219 37.894531 70.78125 C 38.09375 70.988281 38.320312 71.148438 38.578125 71.269531 C 38.839844 71.386719 39.109375 71.457031 39.394531 71.472656 C 40.042969 71.464844 40.589844 71.222656 41.03125 70.75 C 41.40625 70.324219 41.597656 69.828125 41.605469 69.261719 C 41.597656 68.667969 41.390625 68.160156 40.984375 67.730469 C 40.777344 67.523438 40.535156 67.363281 40.261719 67.25 C 39.988281 67.140625 39.707031 67.085938 39.410156 67.09375 C 39.117188 67.101562 38.835938 67.164062 38.566406 67.285156 C 38.296875 67.40625 38.0625 67.578125 37.863281 67.796875 Z M 37.863281 67.796875 "/>
</g>
</svg>
