<?xml version="1.0" encoding="UTF-8"?>
<svg xmlns="http://www.w3.org/2000/svg" xmlns:xlink="http://www.w3.org/1999/xlink" width="112.5pt" height="112.499997pt" viewBox="0 0 112.5 112.499997" version="1.2">
<defs>
<clipPath id="clip1">
  <path d="M 45 102 L 68 102 L 68 107.300781 L 45 107.300781 Z M 45 102 "/>
</clipPath>
<clipPath id="clip2">
  <path d="M 79 16 L 92.636719 16 L 92.636719 30 L 79 30 Z M 79 16 "/>
</clipPath>
</defs>
<g id="surface1">
<path style=" stroke:none;fill-rule:nonzero;fill:rgb(100%,100%,100%);fill-opacity:1;" d="M 56.40625 68.390625 C 54.632812 68.398438 52.902344 68.117188 51.21875 67.550781 C 49.535156 66.984375 47.988281 66.160156 46.578125 65.078125 L 72.851562 38.851562 L 72.851562 52.046875 C 72.847656 52.585938 72.820312 53.121094 72.765625 53.65625 C 72.710938 54.1875 72.628906 54.71875 72.523438 55.246094 C 72.414062 55.773438 72.285156 56.292969 72.125 56.804688 C 71.96875 57.316406 71.785156 57.824219 71.578125 58.316406 C 71.371094 58.8125 71.140625 59.296875 70.886719 59.769531 C 70.632812 60.242188 70.355469 60.703125 70.054688 61.148438 C 69.753906 61.59375 69.433594 62.023438 69.089844 62.4375 C 68.75 62.851562 68.386719 63.246094 68.007812 63.625 C 67.625 64.003906 67.230469 64.363281 66.8125 64.699219 C 66.398438 65.039062 65.964844 65.359375 65.519531 65.65625 C 65.070312 65.953125 64.609375 66.226562 64.136719 66.476562 C 63.664062 66.730469 63.175781 66.957031 62.679688 67.160156 C 62.183594 67.367188 61.679688 67.546875 61.164062 67.699219 C 60.652344 67.855469 60.128906 67.984375 59.605469 68.085938 C 59.078125 68.1875 58.546875 68.265625 58.011719 68.316406 C 57.480469 68.367188 56.945312 68.394531 56.40625 68.390625 Z M 40.074219 22.789062 C 40.066406 22.246094 40.082031 21.703125 40.128906 21.160156 C 40.171875 20.621094 40.242188 20.082031 40.339844 19.546875 C 40.4375 19.015625 40.5625 18.488281 40.714844 17.964844 C 40.863281 17.441406 41.039062 16.929688 41.242188 16.425781 C 41.441406 15.921875 41.667969 15.425781 41.917969 14.945312 C 42.167969 14.464844 42.441406 13.996094 42.738281 13.539062 C 43.035156 13.085938 43.351562 12.648438 43.691406 12.222656 C 44.03125 11.800781 44.394531 11.394531 44.773438 11.007812 C 45.152344 10.621094 45.554688 10.253906 45.96875 9.90625 C 46.386719 9.558594 46.820312 9.230469 47.269531 8.925781 C 47.71875 8.621094 48.179688 8.339844 48.660156 8.082031 C 49.136719 7.824219 49.625 7.589844 50.125 7.378906 C 50.625 7.167969 51.136719 6.984375 51.65625 6.824219 C 52.171875 6.664062 52.699219 6.53125 53.230469 6.425781 C 53.761719 6.320312 54.296875 6.238281 54.839844 6.183594 C 55.378906 6.128906 55.921875 6.101562 56.460938 6.101562 C 57.003906 6.101562 57.546875 6.128906 58.085938 6.183594 C 58.625 6.238281 59.164062 6.320312 59.695312 6.425781 C 60.226562 6.53125 60.753906 6.664062 61.269531 6.824219 C 61.789062 6.984375 62.300781 7.167969 62.800781 7.378906 C 63.300781 7.589844 63.789062 7.824219 64.265625 8.082031 C 64.742188 8.339844 65.207031 8.621094 65.65625 8.925781 C 66.105469 9.230469 66.539062 9.558594 66.957031 9.90625 C 67.371094 10.253906 67.769531 10.621094 68.152344 11.007812 C 68.53125 11.394531 68.890625 11.800781 69.234375 12.222656 C 69.574219 12.648438 69.890625 13.085938 70.1875 13.539062 C 70.484375 13.996094 70.757812 14.464844 71.007812 14.945312 C 71.257812 15.425781 71.484375 15.921875 71.683594 16.425781 C 71.886719 16.929688 72.0625 17.441406 72.210938 17.964844 C 72.363281 18.488281 72.488281 19.015625 72.585938 19.546875 C 72.683594 20.082031 72.753906 20.621094 72.796875 21.160156 C 72.84375 21.703125 72.859375 22.246094 72.851562 22.789062 L 72.851562 32.75 C 72.804688 32.777344 72.761719 32.804688 72.71875 32.835938 L 43.460938 62.09375 C 42.363281 60.644531 41.523438 59.0625 40.941406 57.339844 C 40.359375 55.621094 40.066406 53.851562 40.066406 52.03125 Z M 40.074219 22.789062 "/>
<path style=" stroke:none;fill-rule:nonzero;fill:rgb(100%,100%,100%);fill-opacity:1;" d="M 84.960938 50.832031 C 84.972656 51.777344 84.9375 52.71875 84.855469 53.660156 C 84.777344 54.597656 84.648438 55.53125 84.476562 56.460938 C 84.300781 57.386719 84.082031 58.304688 83.820312 59.210938 C 83.554688 60.117188 83.246094 61.007812 82.894531 61.882812 C 82.542969 62.757812 82.148438 63.613281 81.710938 64.449219 C 81.273438 65.285156 80.796875 66.097656 80.277344 66.886719 C 79.761719 67.675781 79.207031 68.4375 78.613281 69.171875 C 78.019531 69.90625 77.394531 70.609375 76.730469 71.277344 C 76.066406 71.949219 75.375 72.585938 74.648438 73.191406 C 73.921875 73.792969 73.167969 74.359375 72.386719 74.886719 C 71.605469 75.414062 70.800781 75.902344 69.972656 76.351562 C 69.140625 76.800781 68.292969 77.207031 67.421875 77.570312 C 66.550781 77.933594 65.667969 78.253906 64.765625 78.53125 C 63.863281 78.804688 62.949219 79.035156 62.023438 79.222656 C 61.101562 79.40625 60.167969 79.546875 59.230469 79.640625 C 58.292969 79.734375 57.351562 79.78125 56.410156 79.78125 C 55.464844 79.78125 54.527344 79.734375 53.585938 79.640625 C 52.648438 79.546875 51.71875 79.40625 50.792969 79.222656 C 49.867188 79.035156 48.957031 78.804688 48.054688 78.53125 C 47.152344 78.253906 46.265625 77.933594 45.398438 77.570312 C 44.527344 77.207031 43.675781 76.800781 42.847656 76.351562 C 42.015625 75.902344 41.210938 75.414062 40.429688 74.886719 C 39.648438 74.359375 38.894531 73.792969 38.171875 73.191406 C 37.445312 72.585938 36.75 71.949219 36.089844 71.277344 C 35.425781 70.609375 34.796875 69.90625 34.207031 69.171875 C 33.613281 68.4375 33.058594 67.675781 32.539062 66.886719 C 32.023438 66.097656 31.546875 65.285156 31.109375 64.449219 C 30.671875 63.613281 30.277344 62.757812 29.925781 61.882812 C 29.570312 61.007812 29.265625 60.117188 29 59.210938 C 28.734375 58.304688 28.515625 57.386719 28.34375 56.460938 C 28.171875 55.53125 28.042969 54.597656 27.960938 53.660156 C 27.882812 52.71875 27.847656 51.777344 27.859375 50.832031 L 27.859375 48.734375 L 23.441406 48.734375 L 23.441406 50.832031 C 23.429688 51.921875 23.46875 53.007812 23.5625 54.09375 C 23.660156 55.179688 23.804688 56.257812 24.007812 57.328125 C 24.207031 58.398438 24.460938 59.453125 24.765625 60.5 C 25.070312 61.546875 25.429688 62.574219 25.835938 63.582031 C 26.242188 64.59375 26.699219 65.578125 27.203125 66.542969 C 27.710938 67.507812 28.261719 68.445312 28.859375 69.355469 C 29.457031 70.265625 30.097656 71.144531 30.78125 71.992188 C 31.464844 72.835938 32.191406 73.648438 32.957031 74.421875 C 33.71875 75.199219 34.519531 75.933594 35.359375 76.628906 C 36.195312 77.324219 37.066406 77.976562 37.96875 78.585938 C 38.871094 79.191406 39.800781 79.757812 40.757812 80.273438 C 41.714844 80.789062 42.695312 81.257812 43.699219 81.679688 C 44.703125 82.097656 45.726562 82.46875 46.765625 82.785156 C 47.808594 83.105469 48.859375 83.371094 49.929688 83.585938 C 50.996094 83.796875 52.070312 83.960938 53.152344 84.066406 C 54.234375 84.175781 55.320312 84.226562 56.410156 84.230469 C 57.496094 84.226562 58.582031 84.175781 59.664062 84.066406 C 60.75 83.960938 61.824219 83.796875 62.890625 83.585938 C 63.957031 83.371094 65.011719 83.105469 66.050781 82.785156 C 67.09375 82.46875 68.113281 82.097656 69.117188 81.679688 C 70.121094 81.257812 71.105469 80.789062 72.0625 80.273438 C 73.019531 79.757812 73.949219 79.191406 74.851562 78.585938 C 75.753906 77.976562 76.621094 77.324219 77.460938 76.628906 C 78.296875 75.933594 79.097656 75.199219 79.863281 74.421875 C 80.628906 73.648438 81.351562 72.835938 82.039062 71.992188 C 82.722656 71.144531 83.363281 70.265625 83.960938 69.355469 C 84.558594 68.445312 85.109375 67.507812 85.613281 66.542969 C 86.121094 65.578125 86.574219 64.59375 86.984375 63.582031 C 87.390625 62.574219 87.746094 61.546875 88.050781 60.5 C 88.359375 59.453125 88.609375 58.398438 88.8125 57.328125 C 89.011719 56.257812 89.160156 55.179688 89.253906 54.09375 C 89.347656 53.007812 89.390625 51.921875 89.375 50.832031 L 89.375 48.734375 L 84.960938 48.734375 Z M 84.960938 50.832031 "/>
<path style=" stroke:none;fill-rule:nonzero;fill:rgb(100%,100%,100%);fill-opacity:1;" d="M 54.199219 85.898438 L 58.613281 85.898438 L 58.613281 100.226562 L 54.199219 100.226562 Z M 54.199219 85.898438 "/>
<g clip-path="url(#clip1)" clip-rule="nonzero">
<path style=" stroke:none;fill-rule:nonzero;fill:rgb(100%,100%,100%);fill-opacity:1;" d="M 65.238281 102.929688 L 47.582031 102.929688 C 47.285156 102.917969 47 102.96875 46.722656 103.074219 C 46.449219 103.183594 46.203125 103.34375 45.996094 103.550781 C 45.785156 103.761719 45.625 104.003906 45.515625 104.28125 C 45.40625 104.558594 45.359375 104.84375 45.371094 105.140625 C 45.378906 105.433594 45.441406 105.710938 45.554688 105.980469 C 45.671875 106.246094 45.832031 106.480469 46.035156 106.6875 C 46.242188 106.894531 46.480469 107.054688 46.746094 107.167969 C 47.011719 107.28125 47.292969 107.34375 47.582031 107.351562 L 65.238281 107.351562 C 65.53125 107.34375 65.808594 107.28125 66.078125 107.167969 C 66.34375 107.054688 66.578125 106.894531 66.785156 106.6875 C 66.992188 106.480469 67.152344 106.246094 67.265625 105.976562 C 67.378906 105.710938 67.441406 105.433594 67.449219 105.140625 C 67.460938 104.84375 67.414062 104.558594 67.304688 104.28125 C 67.195312 104.003906 67.039062 103.761719 66.828125 103.550781 C 66.617188 103.34375 66.375 103.183594 66.097656 103.074219 C 65.824219 102.96875 65.535156 102.917969 65.238281 102.929688 Z M 65.238281 102.929688 "/>
</g>
<g clip-path="url(#clip2)" clip-rule="nonzero">
<path style=" stroke:none;fill-rule:nonzero;fill:rgb(100%,100%,100%);fill-opacity:1;" d="M 91.554688 17.03125 C 91.355469 16.816406 91.121094 16.648438 90.847656 16.53125 C 90.578125 16.414062 90.296875 16.355469 90.003906 16.355469 C 89.707031 16.355469 89.425781 16.414062 89.15625 16.53125 C 88.886719 16.648438 88.648438 16.816406 88.449219 17.03125 L 80.039062 25.390625 C 79.714844 25.703125 79.511719 26.082031 79.421875 26.523438 C 79.335938 26.964844 79.382812 27.390625 79.558594 27.804688 C 79.738281 28.214844 80.019531 28.539062 80.398438 28.777344 C 80.78125 29.015625 81.195312 29.125 81.644531 29.101562 C 82.230469 29.121094 82.730469 28.921875 83.140625 28.5 L 91.554688 20.074219 C 91.757812 19.871094 91.914062 19.640625 92.023438 19.375 C 92.132812 19.113281 92.1875 18.839844 92.1875 18.554688 C 92.1875 18.269531 92.132812 17.992188 92.023438 17.730469 C 91.914062 17.464844 91.757812 17.234375 91.554688 17.03125 Z M 91.554688 17.03125 "/>
</g>
<path style=" stroke:none;fill-rule:nonzero;fill:rgb(100%,100%,100%);fill-opacity:1;" d="M 28.429688 77.039062 L 21.371094 84.09375 C 21.144531 84.300781 20.96875 84.542969 20.847656 84.824219 C 20.722656 85.105469 20.660156 85.398438 20.660156 85.703125 C 20.660156 86.007812 20.722656 86.300781 20.847656 86.582031 C 20.96875 86.863281 21.144531 87.105469 21.371094 87.3125 C 21.773438 87.753906 22.273438 87.957031 22.871094 87.914062 C 23.464844 87.953125 23.964844 87.753906 24.371094 87.3125 L 31.53125 80.023438 C 31.734375 79.828125 31.890625 79.597656 32 79.339844 C 32.109375 79.078125 32.164062 78.808594 32.164062 78.527344 C 32.164062 78.246094 32.109375 77.972656 32 77.714844 C 31.890625 77.453125 31.734375 77.226562 31.53125 77.027344 C 31.335938 76.804688 31.105469 76.628906 30.832031 76.503906 C 30.5625 76.382812 30.277344 76.320312 29.980469 76.320312 C 29.683594 76.324219 29.398438 76.386719 29.128906 76.511719 C 28.859375 76.636719 28.625 76.8125 28.429688 77.039062 Z M 28.429688 77.039062 "/>
<path style=" stroke:none;fill-rule:nonzero;fill:rgb(100%,100%,100%);fill-opacity:1;" d="M 37.847656 67.6875 C 37.410156 68.074219 37.207031 68.5625 37.234375 69.144531 C 37.242188 69.429688 37.304688 69.703125 37.414062 69.964844 C 37.523438 70.230469 37.679688 70.464844 37.875 70.667969 C 38.074219 70.875 38.300781 71.035156 38.5625 71.15625 C 38.820312 71.273438 39.089844 71.34375 39.375 71.359375 C 40.023438 71.351562 40.570312 71.109375 41.011719 70.636719 C 41.382812 70.210938 41.574219 69.714844 41.585938 69.148438 C 41.574219 68.5625 41.367188 68.050781 40.964844 67.625 C 40.757812 67.414062 40.515625 67.253906 40.242188 67.144531 C 39.96875 67.035156 39.6875 66.980469 39.390625 66.988281 C 39.097656 66.992188 38.816406 67.058594 38.546875 67.179688 C 38.277344 67.300781 38.046875 67.46875 37.847656 67.6875 Z M 37.847656 67.6875 "/>
</g>
</svg>
