<?xml version="1.0" encoding="UTF-8"?>
<svg xmlns="http://www.w3.org/2000/svg" xmlns:xlink="http://www.w3.org/1999/xlink" width="112.5pt" height="112.499997pt" viewBox="0 0 112.5 112.499997" version="1.2">
<defs>
<clipPath id="clip1">
  <path d="M 40 5.308594 L 74 5.308594 L 74 69 L 40 69 Z M 40 5.308594 "/>
</clipPath>
<clipPath id="clip2">
  <path d="M 23 47 L 90.5625 47 L 90.5625 84 L 23 84 Z M 23 47 "/>
</clipPath>
<clipPath id="clip3">
  <path d="M 45 102 L 69 102 L 69 107.308594 L 45 107.308594 Z M 45 102 "/>
</clipPath>
</defs>
<g id="surface1">
<g clip-path="url(#clip1)" clip-rule="nonzero">
<path style=" stroke:none;fill-rule:nonzero;fill:rgb(0%,0%,0%);fill-opacity:1;" d="M 40.113281 21.394531 C 40.125 20.855469 40.160156 20.320312 40.222656 19.785156 C 40.285156 19.25 40.371094 18.71875 40.484375 18.195312 C 40.597656 17.667969 40.738281 17.148438 40.902344 16.636719 C 41.066406 16.125 41.257812 15.621094 41.472656 15.125 C 41.6875 14.628906 41.921875 14.148438 42.183594 13.675781 C 42.445312 13.203125 42.730469 12.746094 43.035156 12.300781 C 43.34375 11.859375 43.671875 11.429688 44.019531 11.019531 C 44.367188 10.605469 44.734375 10.210938 45.121094 9.832031 C 45.507812 9.457031 45.914062 9.097656 46.335938 8.761719 C 46.757812 8.421875 47.195312 8.105469 47.648438 7.808594 C 48.101562 7.511719 48.566406 7.238281 49.046875 6.988281 C 49.527344 6.738281 50.019531 6.507812 50.519531 6.304688 C 51.023438 6.101562 51.535156 5.921875 52.054688 5.769531 C 52.574219 5.613281 53.101562 5.484375 53.632812 5.378906 C 54.164062 5.277344 54.703125 5.199219 55.242188 5.144531 C 55.78125 5.09375 56.324219 5.066406 56.867188 5.066406 C 57.410156 5.066406 57.949219 5.09375 58.488281 5.144531 C 59.03125 5.199219 59.566406 5.277344 60.097656 5.378906 C 60.632812 5.484375 61.15625 5.613281 61.675781 5.769531 C 62.195312 5.921875 62.707031 6.101562 63.210938 6.304688 C 63.710938 6.507812 64.203125 6.738281 64.683594 6.988281 C 65.164062 7.238281 65.628906 7.511719 66.082031 7.808594 C 66.535156 8.105469 66.972656 8.421875 67.394531 8.761719 C 67.820312 9.097656 68.222656 9.457031 68.609375 9.832031 C 68.996094 10.210938 69.363281 10.605469 69.714844 11.015625 C 70.0625 11.429688 70.386719 11.859375 70.695312 12.300781 C 71 12.746094 71.285156 13.203125 71.546875 13.675781 C 71.808594 14.148438 72.046875 14.628906 72.261719 15.125 C 72.472656 15.621094 72.664062 16.125 72.828125 16.636719 C 72.992188 17.148438 73.132812 17.667969 73.246094 18.195312 C 73.359375 18.71875 73.449219 19.25 73.511719 19.785156 C 73.570312 20.320312 73.609375 20.855469 73.617188 21.394531 L 73.617188 51.195312 C 73.625 51.742188 73.609375 52.292969 73.5625 52.839844 C 73.519531 53.390625 73.445312 53.933594 73.34375 54.476562 C 73.246094 55.015625 73.117188 55.550781 72.964844 56.078125 C 72.8125 56.609375 72.632812 57.128906 72.425781 57.636719 C 72.21875 58.148438 71.988281 58.648438 71.734375 59.136719 C 71.476562 59.625 71.199219 60.097656 70.894531 60.558594 C 70.59375 61.019531 70.265625 61.464844 69.917969 61.894531 C 69.570312 62.320312 69.203125 62.734375 68.8125 63.125 C 68.425781 63.515625 68.019531 63.890625 67.589844 64.242188 C 67.164062 64.59375 66.722656 64.925781 66.261719 65.234375 C 65.804688 65.542969 65.332031 65.828125 64.84375 66.089844 C 64.355469 66.351562 63.855469 66.585938 63.34375 66.800781 C 62.832031 67.011719 62.3125 67.199219 61.78125 67.359375 C 61.25 67.523438 60.714844 67.65625 60.167969 67.765625 C 59.625 67.875 59.078125 67.957031 58.527344 68.011719 C 57.972656 68.066406 57.421875 68.09375 56.867188 68.09375 C 56.3125 68.09375 55.757812 68.066406 55.207031 68.011719 C 54.652344 67.957031 54.105469 67.875 53.5625 67.765625 C 53.019531 67.65625 52.480469 67.523438 51.949219 67.359375 C 51.421875 67.199219 50.898438 67.011719 50.386719 66.800781 C 49.875 66.585938 49.375 66.351562 48.890625 66.089844 C 48.402344 65.828125 47.925781 65.542969 47.46875 65.234375 C 47.007812 64.925781 46.566406 64.59375 46.140625 64.242188 C 45.714844 63.890625 45.304688 63.515625 44.917969 63.125 C 44.527344 62.734375 44.160156 62.320312 43.8125 61.894531 C 43.464844 61.464844 43.140625 61.019531 42.835938 60.558594 C 42.53125 60.097656 42.253906 59.625 41.996094 59.136719 C 41.742188 58.648438 41.511719 58.148438 41.304688 57.636719 C 41.101562 57.128906 40.921875 56.609375 40.765625 56.078125 C 40.613281 55.550781 40.488281 55.015625 40.386719 54.476562 C 40.285156 53.933594 40.214844 53.390625 40.167969 52.839844 C 40.125 52.292969 40.105469 51.742188 40.113281 51.195312 Z M 40.113281 21.394531 "/>
</g>
<g clip-path="url(#clip2)" clip-rule="nonzero">
<path style=" stroke:none;fill-rule:nonzero;fill:rgb(0%,0%,0%);fill-opacity:1;" d="M 86.136719 47.738281 L 86.136719 49.984375 C 86.136719 50.9375 86.089844 51.882812 85.996094 52.832031 C 85.902344 53.777344 85.761719 54.714844 85.574219 55.648438 C 85.390625 56.582031 85.15625 57.5 84.878906 58.410156 C 84.601562 59.320312 84.277344 60.214844 83.910156 61.09375 C 83.542969 61.972656 83.136719 62.832031 82.683594 63.667969 C 82.230469 64.507812 81.738281 65.320312 81.207031 66.113281 C 80.675781 66.902344 80.105469 67.667969 79.496094 68.402344 C 78.886719 69.136719 78.246094 69.839844 77.566406 70.511719 C 76.890625 71.183594 76.179688 71.820312 75.4375 72.425781 C 74.699219 73.027344 73.929688 73.59375 73.132812 74.121094 C 72.335938 74.652344 71.511719 75.140625 70.667969 75.585938 C 69.824219 76.035156 68.957031 76.441406 68.070312 76.804688 C 67.183594 77.167969 66.285156 77.488281 65.367188 77.765625 C 64.449219 78.042969 63.519531 78.273438 62.578125 78.457031 C 61.640625 78.644531 60.691406 78.78125 59.738281 78.875 C 58.785156 78.96875 57.828125 79.015625 56.867188 79.015625 C 55.910156 79.015625 54.953125 78.96875 54 78.875 C 53.042969 78.78125 52.097656 78.644531 51.15625 78.457031 C 50.21875 78.273438 49.289062 78.042969 48.371094 77.765625 C 47.453125 77.488281 46.550781 77.167969 45.664062 76.804688 C 44.78125 76.441406 43.914062 76.035156 43.070312 75.585938 C 42.222656 75.140625 41.402344 74.652344 40.605469 74.121094 C 39.808594 73.59375 39.039062 73.027344 38.296875 72.425781 C 37.554688 71.820312 36.847656 71.183594 36.167969 70.511719 C 35.492188 69.839844 34.847656 69.136719 34.242188 68.402344 C 33.632812 67.667969 33.0625 66.902344 32.53125 66.113281 C 31.996094 65.320312 31.503906 64.507812 31.054688 63.667969 C 30.601562 62.832031 30.191406 61.972656 29.824219 61.09375 C 29.457031 60.214844 29.136719 59.320312 28.859375 58.410156 C 28.582031 57.5 28.347656 56.582031 28.160156 55.648438 C 27.972656 54.714844 27.835938 53.777344 27.742188 52.832031 C 27.648438 51.882812 27.601562 50.9375 27.601562 49.984375 L 27.601562 47.738281 L 23.066406 47.738281 L 23.066406 49.984375 C 23.054688 51.089844 23.09375 52.195312 23.191406 53.296875 C 23.289062 54.398438 23.441406 55.492188 23.644531 56.582031 C 23.851562 57.667969 24.113281 58.742188 24.425781 59.804688 C 24.738281 60.867188 25.105469 61.910156 25.523438 62.933594 C 25.9375 63.960938 26.40625 64.964844 26.925781 65.945312 C 27.441406 66.921875 28.007812 67.875 28.621094 68.800781 C 29.234375 69.722656 29.890625 70.617188 30.589844 71.476562 C 31.292969 72.335938 32.035156 73.160156 32.820312 73.945312 C 33.605469 74.734375 34.425781 75.480469 35.285156 76.1875 C 36.144531 76.890625 37.035156 77.554688 37.960938 78.171875 C 38.882812 78.792969 39.835938 79.363281 40.820312 79.890625 C 41.800781 80.414062 42.808594 80.890625 43.835938 81.316406 C 44.867188 81.742188 45.914062 82.117188 46.980469 82.441406 C 48.046875 82.765625 49.128906 83.035156 50.222656 83.253906 C 51.316406 83.46875 52.417969 83.632812 53.527344 83.742188 C 54.636719 83.851562 55.75 83.90625 56.867188 83.90625 C 57.980469 83.90625 59.09375 83.851562 60.203125 83.742188 C 61.316406 83.632812 62.417969 83.46875 63.511719 83.253906 C 64.605469 83.035156 65.683594 82.765625 66.75 82.441406 C 67.816406 82.117188 68.867188 81.742188 69.894531 81.316406 C 70.925781 80.890625 71.929688 80.414062 72.914062 79.890625 C 73.894531 79.363281 74.847656 78.792969 75.773438 78.171875 C 76.695312 77.554688 77.589844 76.890625 78.449219 76.1875 C 79.304688 75.480469 80.128906 74.734375 80.910156 73.945312 C 81.695312 73.160156 82.4375 72.335938 83.140625 71.476562 C 83.84375 70.617188 84.5 69.722656 85.113281 68.800781 C 85.722656 67.875 86.289062 66.921875 86.808594 65.945312 C 87.324219 64.964844 87.792969 63.960938 88.210938 62.933594 C 88.628906 61.910156 88.992188 60.867188 89.304688 59.804688 C 89.621094 58.742188 89.878906 57.667969 90.085938 56.582031 C 90.292969 55.492188 90.441406 54.398438 90.539062 53.296875 C 90.636719 52.195312 90.679688 51.089844 90.664062 49.984375 L 90.664062 47.738281 Z M 86.136719 47.738281 "/>
</g>
<path style=" stroke:none;fill-rule:nonzero;fill:rgb(0%,0%,0%);fill-opacity:1;" d="M 54.714844 85.503906 L 59.019531 85.503906 L 59.019531 100.167969 L 54.714844 100.167969 Z M 54.714844 85.503906 "/>
<g clip-path="url(#clip3)" clip-rule="nonzero">
<path style=" stroke:none;fill-rule:nonzero;fill:rgb(0%,0%,0%);fill-opacity:1;" d="M 65.910156 102.8125 L 47.816406 102.8125 C 47.515625 102.8125 47.226562 102.867188 46.949219 102.980469 C 46.671875 103.09375 46.429688 103.257812 46.214844 103.46875 C 46.003906 103.679688 45.839844 103.921875 45.726562 104.195312 C 45.609375 104.472656 45.554688 104.757812 45.554688 105.054688 C 45.554688 105.351562 45.609375 105.640625 45.726562 105.914062 C 45.839844 106.191406 46.003906 106.433594 46.214844 106.644531 C 46.429688 106.855469 46.671875 107.015625 46.949219 107.128906 C 47.226562 107.242188 47.515625 107.300781 47.816406 107.300781 L 65.910156 107.300781 C 66.210938 107.300781 66.5 107.242188 66.777344 107.128906 C 67.054688 107.015625 67.296875 106.855469 67.511719 106.644531 C 67.722656 106.433594 67.886719 106.191406 68 105.914062 C 68.117188 105.640625 68.171875 105.351562 68.171875 105.054688 C 68.171875 104.757812 68.117188 104.472656 68 104.195312 C 67.886719 103.921875 67.722656 103.679688 67.511719 103.46875 C 67.296875 103.257812 67.054688 103.09375 66.777344 102.980469 C 66.5 102.867188 66.210938 102.8125 65.910156 102.8125 Z M 65.910156 102.8125 "/>
</g>
</g>
</svg>
