<?xml version="1.0" encoding="UTF-8"?>
<svg xmlns="http://www.w3.org/2000/svg" xmlns:xlink="http://www.w3.org/1999/xlink" width="112.5pt" height="112.499997pt" viewBox="0 0 112.5 112.499997" version="1.2">
<defs>
<clipPath id="clip1">
  <path d="M 40 5.308594 L 74 5.308594 L 74 69 L 40 69 Z M 40 5.308594 "/>
</clipPath>
<clipPath id="clip2">
  <path d="M 23 47 L 90.5625 47 L 90.5625 84 L 23 84 Z M 23 47 "/>
</clipPath>
<clipPath id="clip3">
  <path d="M 45 102 L 68 102 L 68 107.308594 L 45 107.308594 Z M 45 102 "/>
</clipPath>
</defs>
<g id="surface1">
<g clip-path="url(#clip1)" clip-rule="nonzero">
<path style=" stroke:none;fill-rule:nonzero;fill:rgb(100%,100%,100%);fill-opacity:1;" d="M 40.015625 21.375 C 40.027344 20.835938 40.0625 20.300781 40.125 19.765625 C 40.183594 19.234375 40.273438 18.703125 40.386719 18.175781 C 40.5 17.652344 40.636719 17.132812 40.800781 16.621094 C 40.964844 16.109375 41.152344 15.605469 41.367188 15.113281 C 41.578125 14.617188 41.816406 14.136719 42.074219 13.664062 C 42.335938 13.195312 42.617188 12.738281 42.921875 12.292969 C 43.226562 11.851562 43.554688 11.421875 43.898438 11.011719 C 44.246094 10.597656 44.613281 10.203125 44.996094 9.828125 C 45.382812 9.449219 45.785156 9.09375 46.203125 8.753906 C 46.625 8.417969 47.058594 8.101562 47.507812 7.804688 C 47.960938 7.507812 48.421875 7.238281 48.902344 6.984375 C 49.378906 6.734375 49.867188 6.507812 50.367188 6.304688 C 50.867188 6.101562 51.375 5.921875 51.890625 5.765625 C 52.40625 5.613281 52.929688 5.484375 53.460938 5.378906 C 53.992188 5.277344 54.523438 5.199219 55.0625 5.148438 C 55.597656 5.09375 56.136719 5.070312 56.675781 5.070312 C 57.214844 5.070312 57.753906 5.09375 58.292969 5.148438 C 58.828125 5.199219 59.363281 5.277344 59.890625 5.378906 C 60.421875 5.484375 60.945312 5.613281 61.460938 5.765625 C 61.976562 5.921875 62.484375 6.101562 62.984375 6.304688 C 63.484375 6.507812 63.972656 6.734375 64.449219 6.984375 C 64.929688 7.238281 65.390625 7.507812 65.84375 7.804688 C 66.292969 8.101562 66.730469 8.417969 67.148438 8.753906 C 67.566406 9.09375 67.96875 9.449219 68.355469 9.828125 C 68.742188 10.203125 69.105469 10.597656 69.453125 11.011719 C 69.800781 11.421875 70.125 11.851562 70.429688 12.292969 C 70.734375 12.738281 71.015625 13.195312 71.277344 13.664062 C 71.535156 14.136719 71.773438 14.617188 71.984375 15.113281 C 72.199219 15.605469 72.386719 16.109375 72.550781 16.621094 C 72.714844 17.132812 72.851562 17.652344 72.964844 18.175781 C 73.078125 18.703125 73.167969 19.234375 73.230469 19.765625 C 73.289062 20.300781 73.324219 20.835938 73.335938 21.375 L 73.335938 51.136719 C 73.34375 51.683594 73.328125 52.234375 73.28125 52.78125 C 73.238281 53.328125 73.164062 53.871094 73.066406 54.414062 C 72.964844 54.953125 72.839844 55.488281 72.6875 56.015625 C 72.535156 56.542969 72.355469 57.0625 72.152344 57.570312 C 71.945312 58.082031 71.714844 58.582031 71.460938 59.070312 C 71.207031 59.554688 70.929688 60.03125 70.628906 60.488281 C 70.328125 60.949219 70.003906 61.394531 69.65625 61.820312 C 69.3125 62.25 68.945312 62.660156 68.558594 63.050781 C 68.171875 63.445312 67.765625 63.816406 67.34375 64.167969 C 66.917969 64.519531 66.480469 64.847656 66.023438 65.15625 C 65.566406 65.464844 65.09375 65.75 64.609375 66.011719 C 64.125 66.273438 63.628906 66.511719 63.117188 66.722656 C 62.609375 66.933594 62.089844 67.121094 61.5625 67.28125 C 61.035156 67.445312 60.503906 67.578125 59.960938 67.6875 C 59.421875 67.796875 58.875 67.875 58.328125 67.929688 C 57.777344 67.984375 57.226562 68.011719 56.675781 68.011719 C 56.125 68.011719 55.574219 67.984375 55.023438 67.929688 C 54.476562 67.875 53.929688 67.796875 53.390625 67.6875 C 52.847656 67.578125 52.316406 67.445312 51.789062 67.28125 C 51.261719 67.121094 50.742188 66.933594 50.234375 66.722656 C 49.726562 66.511719 49.226562 66.273438 48.742188 66.011719 C 48.257812 65.75 47.785156 65.464844 47.328125 65.15625 C 46.875 64.847656 46.433594 64.519531 46.007812 64.167969 C 45.585938 63.816406 45.179688 63.445312 44.792969 63.050781 C 44.40625 62.660156 44.039062 62.25 43.695312 61.820312 C 43.347656 61.394531 43.023438 60.949219 42.722656 60.488281 C 42.421875 60.03125 42.144531 59.554688 41.890625 59.070312 C 41.636719 58.582031 41.40625 58.082031 41.203125 57.570312 C 40.996094 57.0625 40.820312 56.542969 40.664062 56.015625 C 40.511719 55.488281 40.386719 54.953125 40.289062 54.414062 C 40.1875 53.871094 40.117188 53.328125 40.070312 52.78125 C 40.023438 52.234375 40.007812 51.683594 40.015625 51.136719 Z M 40.015625 21.375 "/>
</g>
<g clip-path="url(#clip2)" clip-rule="nonzero">
<path style=" stroke:none;fill-rule:nonzero;fill:rgb(100%,100%,100%);fill-opacity:1;" d="M 85.785156 47.6875 L 85.785156 49.929688 C 85.785156 50.878906 85.738281 51.824219 85.644531 52.769531 C 85.554688 53.714844 85.414062 54.652344 85.226562 55.585938 C 85.042969 56.515625 84.8125 57.4375 84.535156 58.34375 C 84.257812 59.253906 83.9375 60.144531 83.574219 61.023438 C 83.207031 61.902344 82.800781 62.757812 82.351562 63.59375 C 81.902344 64.433594 81.414062 65.246094 80.882812 66.035156 C 80.355469 66.824219 79.785156 67.585938 79.183594 68.320312 C 78.578125 69.054688 77.9375 69.757812 77.265625 70.429688 C 76.589844 71.101562 75.882812 71.738281 75.148438 72.339844 C 74.410156 72.941406 73.644531 73.507812 72.851562 74.035156 C 72.058594 74.5625 71.242188 75.050781 70.402344 75.5 C 69.5625 75.945312 68.699219 76.351562 67.820312 76.714844 C 66.9375 77.078125 66.042969 77.398438 65.128906 77.671875 C 64.21875 77.949219 63.292969 78.179688 62.359375 78.363281 C 61.421875 78.550781 60.480469 78.691406 59.53125 78.78125 C 58.582031 78.875 57.632812 78.921875 56.679688 78.921875 C 55.726562 78.921875 54.773438 78.875 53.824219 78.78125 C 52.875 78.691406 51.933594 78.550781 51 78.363281 C 50.0625 78.179688 49.140625 77.949219 48.226562 77.671875 C 47.316406 77.398438 46.417969 77.078125 45.539062 76.714844 C 44.65625 76.351562 43.796875 75.945312 42.953125 75.5 C 42.113281 75.050781 41.296875 74.5625 40.503906 74.035156 C 39.710938 73.507812 38.945312 72.941406 38.210938 72.339844 C 37.472656 71.738281 36.765625 71.101562 36.09375 70.429688 C 35.417969 69.757812 34.78125 69.054688 34.175781 68.320312 C 33.570312 67.585938 33.003906 66.824219 32.472656 66.035156 C 31.945312 65.246094 31.453125 64.433594 31.003906 63.59375 C 30.554688 62.757812 30.148438 61.902344 29.785156 61.023438 C 29.417969 60.144531 29.097656 59.253906 28.824219 58.34375 C 28.546875 57.4375 28.316406 56.515625 28.128906 55.585938 C 27.941406 54.652344 27.804688 53.714844 27.710938 52.769531 C 27.617188 51.824219 27.570312 50.878906 27.570312 49.929688 L 27.570312 47.6875 L 23.0625 47.6875 L 23.0625 49.929688 C 23.050781 51.035156 23.089844 52.136719 23.1875 53.238281 C 23.285156 54.335938 23.433594 55.429688 23.640625 56.515625 C 23.84375 57.601562 24.101562 58.675781 24.414062 59.734375 C 24.726562 60.796875 25.089844 61.835938 25.503906 62.863281 C 25.917969 63.886719 26.382812 64.886719 26.898438 65.867188 C 27.414062 66.84375 27.976562 67.796875 28.585938 68.71875 C 29.195312 69.644531 29.847656 70.535156 30.546875 71.390625 C 31.246094 72.25 31.984375 73.074219 32.761719 73.859375 C 33.542969 74.644531 34.359375 75.390625 35.214844 76.097656 C 36.066406 76.800781 36.953125 77.464844 37.875 78.082031 C 38.792969 78.699219 39.742188 79.269531 40.71875 79.796875 C 41.695312 80.320312 42.695312 80.792969 43.71875 81.21875 C 44.742188 81.644531 45.785156 82.019531 46.84375 82.34375 C 47.90625 82.667969 48.980469 82.9375 50.066406 83.15625 C 51.15625 83.371094 52.25 83.535156 53.355469 83.644531 C 54.460938 83.753906 55.566406 83.808594 56.675781 83.808594 C 57.785156 83.808594 58.890625 83.753906 59.996094 83.644531 C 61.101562 83.535156 62.195312 83.371094 63.285156 83.15625 C 64.371094 82.9375 65.445312 82.667969 66.507812 82.34375 C 67.566406 82.019531 68.609375 81.644531 69.632812 81.21875 C 70.65625 80.792969 71.65625 80.320312 72.632812 79.796875 C 73.609375 79.269531 74.558594 78.699219 75.480469 78.082031 C 76.398438 77.464844 77.285156 76.800781 78.140625 76.097656 C 78.992188 75.390625 79.808594 74.644531 80.589844 73.859375 C 81.367188 73.074219 82.109375 72.25 82.804688 71.390625 C 83.503906 70.535156 84.15625 69.644531 84.765625 68.71875 C 85.375 67.796875 85.9375 66.84375 86.453125 65.867188 C 86.96875 64.886719 87.433594 63.886719 87.847656 62.863281 C 88.261719 61.835938 88.625 60.796875 88.9375 59.734375 C 89.25 58.675781 89.507812 57.601562 89.714844 56.515625 C 89.917969 55.429688 90.070312 54.335938 90.164062 53.238281 C 90.261719 52.136719 90.300781 51.035156 90.289062 49.929688 L 90.289062 47.6875 Z M 85.785156 47.6875 "/>
</g>
<path style=" stroke:none;fill-rule:nonzero;fill:rgb(100%,100%,100%);fill-opacity:1;" d="M 54.535156 85.402344 L 58.816406 85.402344 L 58.816406 100.046875 L 54.535156 100.046875 Z M 54.535156 85.402344 "/>
<g clip-path="url(#clip3)" clip-rule="nonzero">
<path style=" stroke:none;fill-rule:nonzero;fill:rgb(100%,100%,100%);fill-opacity:1;" d="M 65.671875 102.6875 L 47.675781 102.6875 C 47.378906 102.6875 47.089844 102.746094 46.816406 102.859375 C 46.539062 102.972656 46.296875 103.132812 46.085938 103.34375 C 45.875 103.554688 45.710938 103.796875 45.597656 104.070312 C 45.484375 104.347656 45.425781 104.632812 45.425781 104.929688 C 45.425781 105.226562 45.484375 105.511719 45.597656 105.789062 C 45.710938 106.0625 45.875 106.304688 46.085938 106.515625 C 46.296875 106.726562 46.539062 106.886719 46.816406 107 C 47.089844 107.113281 47.378906 107.171875 47.675781 107.171875 L 65.671875 107.171875 C 65.96875 107.171875 66.253906 107.113281 66.53125 107 C 66.808594 106.886719 67.050781 106.726562 67.261719 106.515625 C 67.472656 106.304688 67.636719 106.0625 67.75 105.789062 C 67.863281 105.511719 67.921875 105.226562 67.921875 104.929688 C 67.921875 104.632812 67.863281 104.347656 67.75 104.070312 C 67.636719 103.796875 67.472656 103.554688 67.261719 103.34375 C 67.050781 103.132812 66.808594 102.972656 66.53125 102.859375 C 66.253906 102.746094 65.96875 102.6875 65.671875 102.6875 Z M 65.671875 102.6875 "/>
</g>
</g>
</svg>
